<?xml version="1.0" encoding="utf-8"?>
<!-- Generator: Adobe Illustrator 25.4.1, SVG Export Plug-In . SVG Version: 6.00 Build 0)  -->
<svg version="1.1" id="Layer_1" xmlns="http://www.w3.org/2000/svg" xmlns:xlink="http://www.w3.org/1999/xlink" x="0px" y="0px"
	 viewBox="0 0 33.93 33.92" style="enable-background:new 0 0 33.93 33.92;" xml:space="preserve">
<style type="text/css">
	.st0{fill:#EEE5E0;}
</style>
<g>
	<g>
		<path class="st0" d="M16.93,33.91c-4.79,0-9.59-0.02-14.38,0.01c-1.27,0.01-2.35-0.88-2.52-2.08C0.01,31.71,0,31.58,0,31.46
			C0,21.8,0,12.13,0,2.47c0-1.39,1.04-2.45,2.44-2.46c1.53-0.01,3.07,0,4.6,0c8.12,0,16.24,0.01,24.36-0.01
			c1.31,0,2.21,0.89,2.42,1.73c0.06,0.23,0.11,0.48,0.11,0.72c0.01,9.67,0,19.34,0,29.02c0,1.37-1.04,2.44-2.42,2.44
			c-1.81,0.01-3.62,0-5.43,0C23.03,33.91,19.98,33.91,16.93,33.91z M18.1,14.9c0-0.68-0.01-1.26,0.01-1.84
			c0.01-0.29-0.08-0.38-0.37-0.38c-1.39,0.01-2.77,0.02-4.16,0c-0.33,0-0.4,0.11-0.4,0.42c0.01,5.15,0.01,10.31,0,15.46
			c0,0.32,0.09,0.42,0.41,0.42c1.44-0.01,2.88-0.01,4.32,0c0.32,0,0.41-0.1,0.41-0.42c-0.01-2.59-0.01-5.18,0-7.78
			c0-0.54,0.04-1.08,0.13-1.61c0.2-1.1,0.7-1.98,1.87-2.28c0.35-0.09,0.73-0.11,1.1-0.1c1.22,0.01,1.97,0.58,2.24,1.78
			c0.14,0.64,0.2,1.32,0.21,1.98c0.02,2.67,0.01,5.33,0,8c0,0.31,0.08,0.43,0.41,0.42c1.44-0.01,2.88-0.01,4.32,0
			c0.31,0,0.39-0.1,0.39-0.4c-0.01-2.87-0.01-5.73,0-8.6c0-1.18-0.06-2.34-0.33-3.49c-0.32-1.36-0.91-2.55-2.13-3.33
			c-0.75-0.48-1.6-0.72-2.48-0.81c-1.08-0.12-2.15-0.13-3.19,0.27C19.7,13.04,18.8,13.78,18.1,14.9z M4.97,20.83
			c0,2.58,0.01,5.16-0.01,7.74c0,0.31,0.1,0.39,0.4,0.39c1.45-0.01,2.9-0.01,4.35,0c0.28,0,0.39-0.07,0.39-0.38
			c-0.01-5.18-0.01-10.37,0-15.55c0-0.31-0.11-0.37-0.39-0.37c-1.43,0.01-2.86,0-4.28,0.01c-0.45,0-0.45,0-0.45,0.44
			C4.97,15.69,4.97,18.26,4.97,20.83z M7.52,10.51c1.64,0,2.96-1.29,2.96-2.91c0-1.65-1.3-2.98-2.93-2.98
			c-1.65,0-2.96,1.3-2.96,2.95C4.59,9.2,5.88,10.5,7.52,10.51z"/>
	</g>
</g>
</svg>
