<?xml version="1.0" encoding="utf-8"?>
<!-- Generator: Adobe Illustrator 25.4.1, SVG Export Plug-In . SVG Version: 6.00 Build 0)  -->
<svg version="1.1" id="Layer_1" xmlns="http://www.w3.org/2000/svg" xmlns:xlink="http://www.w3.org/1999/xlink" x="0px" y="0px"
	 viewBox="0 0 42.96 29.69" style="enable-background:new 0 0 42.96 29.69;" xml:space="preserve">
<style type="text/css">
	.st0{fill-rule:evenodd;clip-rule:evenodd;fill:#EEE5E0;}
</style>
<path class="st0" d="M42.95,13.28c-0.07-4.84-0.51-9.7-2.49-11.49c-0.76-0.69-1.49-1.13-4.4-1.4C32.43,0.06,27.51,0.01,23.78,0
	c-1.54,0-3.07,0-4.61,0c-3.72,0.01-8.65,0.05-12.28,0.39c-2.91,0.27-3.63,0.7-4.4,1.4C0.48,3.62,0.06,8.62,0.01,13.53
	C0,14.45,0,15.37,0.01,16.28C0.07,21.16,0.5,26.09,2.5,27.9c0.76,0.69,1.49,1.13,4.4,1.4c3.64,0.34,8.56,0.39,12.28,0.39
	c1.54,0,3.07,0,4.61,0c3.72-0.01,8.65-0.05,12.28-0.39c2.91-0.27,3.63-0.7,4.4-1.4c1.98-1.8,2.42-6.66,2.49-11.49
	C42.96,15.37,42.96,14.32,42.95,13.28z M17.28,21.41V8.67l10.84,6.17L17.28,21.41z"/>
</svg>
