<?xml version="1.0" encoding="utf-8"?>
<!-- Generator: Adobe Illustrator 25.4.1, SVG Export Plug-In . SVG Version: 6.00 Build 0)  -->
<svg version="1.1" id="Layer_1" xmlns="http://www.w3.org/2000/svg" xmlns:xlink="http://www.w3.org/1999/xlink" x="0px" y="0px"
	 viewBox="0 0 33.93 33.93" style="enable-background:new 0 0 33.93 33.93;" xml:space="preserve">
<style type="text/css">
	.st0{fill:#EEE5E0;}
</style>
<g>
	<g>
		<path id="path26_00000077301546360578495520000006775495348092984711_" class="st0" d="M16.97,0c-4.61,0-5.19,0.02-7,0.1
			C8.17,0.19,6.93,0.47,5.85,0.89C4.74,1.32,3.79,1.9,2.85,2.85C1.9,3.79,1.33,4.74,0.89,5.85C0.47,6.93,0.18,8.16,0.1,9.97
			c-0.08,1.81-0.1,2.39-0.1,7c0,4.61,0.02,5.18,0.1,6.99c0.08,1.81,0.37,3.04,0.79,4.12c0.43,1.12,1.01,2.06,1.96,3.01
			c0.94,0.94,1.89,1.52,3,1.96c1.08,0.42,2.31,0.71,4.12,0.79c1.81,0.08,2.39,0.1,7,0.1c4.61,0,5.18-0.02,6.99-0.1
			c1.81-0.08,3.04-0.37,4.12-0.79c1.12-0.43,2.06-1.01,3-1.96c0.94-0.94,1.52-1.89,1.96-3.01c0.42-1.08,0.7-2.31,0.79-4.12
			c0.08-1.81,0.1-2.39,0.1-6.99s-0.02-5.19-0.1-7c-0.08-1.81-0.37-3.04-0.79-4.12c-0.43-1.12-1.01-2.06-1.96-3.01
			c-0.94-0.94-1.89-1.52-3-1.96C27,0.47,25.76,0.19,23.96,0.1C22.15,0.02,21.57,0,16.97,0L16.97,0z M15.45,3.06
			c0.45,0,0.96,0,1.52,0c4.53,0,5.07,0.02,6.86,0.1c1.65,0.08,2.55,0.35,3.15,0.58c0.79,0.31,1.36,0.68,1.95,1.27
			c0.59,0.59,0.96,1.16,1.27,1.95c0.23,0.6,0.51,1.5,0.58,3.15c0.08,1.79,0.1,2.33,0.1,6.85s-0.02,5.07-0.1,6.85
			c-0.08,1.65-0.35,2.55-0.58,3.15c-0.31,0.79-0.68,1.36-1.27,1.95c-0.59,0.59-1.16,0.96-1.95,1.27c-0.6,0.23-1.5,0.51-3.15,0.58
			c-1.79,0.08-2.33,0.1-6.86,0.1c-4.53,0-5.07-0.02-6.86-0.1c-1.65-0.08-2.55-0.35-3.15-0.59c-0.79-0.31-1.36-0.68-1.95-1.27
			c-0.59-0.59-0.96-1.16-1.27-1.95c-0.23-0.6-0.51-1.5-0.58-3.15c-0.08-1.79-0.1-2.33-0.1-6.86s0.02-5.07,0.1-6.85
			c0.08-1.65,0.35-2.55,0.58-3.15C4.05,6.16,4.42,5.6,5.01,5s1.16-0.96,1.95-1.27c0.6-0.23,1.5-0.51,3.15-0.59
			C11.68,3.08,12.28,3.06,15.45,3.06L15.45,3.06z M26.02,5.87c-1.12,0-2.04,0.91-2.04,2.04c0,1.12,0.91,2.04,2.04,2.04
			c1.12,0,2.04-0.91,2.04-2.04S27.15,5.87,26.02,5.87L26.02,5.87z M16.97,8.25c-4.81,0-8.71,3.9-8.71,8.71
			c0,4.81,3.9,8.71,8.71,8.71c4.81,0,8.71-3.9,8.71-8.71C25.68,12.15,21.78,8.25,16.97,8.25L16.97,8.25z M16.97,11.31
			c3.12,0,5.66,2.53,5.66,5.66c0,3.12-2.53,5.66-5.66,5.66c-3.12,0-5.66-2.53-5.66-5.66C11.31,13.84,13.84,11.31,16.97,11.31z"/>
	</g>
</g>
</svg>
