<?xml version="1.0" encoding="utf-8"?>
<!-- Generator: Adobe Illustrator 25.4.1, SVG Export Plug-In . SVG Version: 6.00 Build 0)  -->
<svg version="1.1" id="Layer_1" xmlns="http://www.w3.org/2000/svg" xmlns:xlink="http://www.w3.org/1999/xlink" x="0px" y="0px"
	 viewBox="0 0 130.22 45.35" style="enable-background:new 0 0 130.22 45.35;" xml:space="preserve">
<style type="text/css">
	.st0{fill:#6D47EF;}
</style>
<g>
	<g>
		<g>
			<path class="st0" d="M104.94,28.83v5.15c0,0.43-0.34,0.77-0.77,0.77h0c-0.43,0-0.77-0.34-0.77-0.77l0-5.15
				c0-2.46-2-4.46-4.46-4.46l-2.68,0l2.22,20.78l11.18,0l2.42-20.78l-2.68,0C106.93,24.37,104.94,26.37,104.94,28.83z"/>
		</g>
	</g>
	<g>
		<g>
			<path class="st0" d="M58.74,40.69l0-4.92c0-0.43,0.34-0.77,0.77-0.77l0,0c0.43,0,0.77,0.34,0.77,0.77l0,4.92
				c0,2.46,2,4.46,4.46,4.46l2.68,0L65.2,24.37l-11.18,0L51.6,45.15l2.68,0C56.74,45.15,58.74,43.16,58.74,40.69z"/>
		</g>
	</g>
	<path class="st0" d="M10.5,6.48l5.33,0l0-6.29l-9.66,0l-3.62,0l-0.23,0L0,0.19l0,2.88l0,0c1.28,0,2.32,1.04,2.32,2.32l0,0.68
		l0,1.58l0,7.4c0,3.28,2.66,5.93,5.93,5.93l7.58,0l0-6.36l-5.33,0c-0.43,0-0.79-0.33-0.81-0.75c-0.02-0.45,0.34-0.83,0.79-0.83
		l5.35,0l0-4.97l-5.35,0c-0.45,0-0.81-0.37-0.79-0.83C9.7,6.81,10.07,6.48,10.5,6.48z"/>
	<path class="st0" d="M49.43,20.98"/>
	<path class="st0" d="M53.53,6.66c0-3.57-2.89-6.47-6.46-6.47l-1.65,0l-5.41,0l-1.23,0l-2.9,0l0,2.88l0.36,0
		c1.4,0,2.54,1.14,2.54,2.54l0,15.37l2.19,0c2.46,0,4.45-1.99,4.46-4.45l0.01-3.39l1.62-0.01C50.64,13.12,53.53,10.23,53.53,6.66z"
		/>
	<rect x="41.37" y="24.37" class="st0" width="6.67" height="20.78"/>
	<path class="st0" d="M94.2,45.15l-6.54,0c-0.07,0-0.13-0.06-0.13-0.13l0-20.65l6.67,0L94.2,45.15z"/>
	<rect x="87.53" y="0.19" class="st0" width="6.67" height="20.78"/>
	<path class="st0" d="M85.85,18.1c-1.07,0-2.02-0.77-2.02-1.87c0,0,0-0.05,0-0.05c0-1.89-0.98-3.59-2.27-4.77
		c1.31-1.21,2.11-2.95,2.08-4.88c-0.07-3.49-3.05-6.34-6.54-6.34l-11.04,0v2.88l0.36,0c1.4,0,2.54,1.14,2.54,2.54l0,15.37l2.17,0
		c2.46,0,4.46-2,4.46-4.46v-4.89c0-0.4,0.29-0.75,0.69-0.8c0.47-0.05,0.87,0.32,0.87,0.78l0,4.91c0,2.46,2,4.46,4.46,4.46l1.15,0
		l3.2,0V18.1H85.85z"/>
	<path class="st0" d="M38.02,42.27c-1.07,0-2.02-0.77-2.02-1.87c0,0,0-0.05,0-0.05c0-1.89-0.98-3.59-2.27-4.77
		c1.31-1.21,2.11-2.95,2.08-4.88c-0.07-3.49-3.05-6.34-6.54-6.34l-11.04,0l0,2.88h0.36c1.4,0,2.54,1.14,2.54,2.54l0,15.37h2.17
		c2.46,0,4.46-2,4.46-4.46l0-4.89c0-0.4,0.29-0.75,0.69-0.8c0.47-0.05,0.87,0.32,0.87,0.78l0,4.91c0,2.46,2,4.46,4.46,4.46l4.35,0
		v-2.88H38.02z"/>
	<g>
		<g>
			<path class="st0" d="M10.03,38.01c0,0.43-0.35,0.78-0.78,0.78l0,0c-0.43,0-0.78-0.35-0.78-0.78l0-6.5c0-0.43,0.35-0.78,0.78-0.78
				l0,0c0.43,0,0.78,0.35,0.78,0.78l0,0c0,1.36,1.11,2.47,2.47,2.47l3.94,0l0-3.58c0-3.44-2.79-6.23-6.23-6.23l-3.97,0
				C2.79,24.16,0,26.95,0,30.4l0,8.72c0,3.44,2.79,6.23,6.23,6.23l3.97,0c3.44,0,6.23-2.79,6.23-6.23l0-3.58l-3.94,0
				C11.13,35.54,10.03,36.64,10.03,38.01L10.03,38.01z"/>
		</g>
	</g>
	<path class="st0" d="M123.99,24.18l-3.97,0c-3.44,0-6.23,2.79-6.23,6.23l0,8.72c0,3.44,2.79,6.23,6.23,6.23l3.97,0
		c3.44,0,6.23-2.79,6.23-6.23v-2.84v-0.74V30.4C130.22,26.96,127.43,24.18,123.99,24.18z M122.79,38.01c0,0.43-0.35,0.78-0.78,0.78
		c-0.43,0-0.78-0.35-0.78-0.78l0-6.5c0-0.43,0.35-0.78,0.78-0.78c0.43,0,0.78,0.35,0.78,0.78V38.01z"/>
	<path class="st0" d="M123.99,0.01l-3.97,0c-3.44,0-6.23,2.79-6.23,6.23l0,8.73c0,3.44,2.79,6.23,6.23,6.23l3.97,0
		c3.44,0,6.23-2.79,6.23-6.23v-2.84v-0.74l0-5.15C130.22,2.8,127.43,0.01,123.99,0.01z M122.79,13.86c0,0.43-0.35,0.78-0.78,0.78
		c-0.43,0-0.78-0.35-0.78-0.78l0-6.5c0-0.43,0.35-0.78,0.78-0.78c0.43,0,0.78,0.35,0.78,0.78V13.86z"/>
	<path class="st0" d="M26.42,4.53"/>
	<path class="st0" d="M83.71,20.64"/>
	<g>
		<g>
			<path class="st0" d="M84.72,24.37l-15.72,0l0,3.75v4.13l2.93,0v-1.37c0-0.44,0.35-0.79,0.79-0.79l0,0c0.44,0,0.79,0.35,0.79,0.79
				v1.19c0.01,0.03,0.01,0.05,0.01,0.08l0,13.01l6.67,0l0-13.21c0-0.02,0-0.04,0-0.06V30.9c0-0.41,0.3-0.76,0.7-0.81
				c0.48-0.05,0.88,0.32,0.88,0.79v1.37l2.94,0L84.72,24.37z"/>
		</g>
	</g>
	<path class="st0" d="M28.17,6.45l1.59,1.25c0.77,0.6,1.71,0.93,2.69,0.93l0.42,0c0.67,0,1.21-0.54,1.21-1.21V5.88v-0.1
		c0-3.19-2.59-5.78-5.78-5.78l-4.87,0c-3.19,0-5.78,2.59-5.77,5.78l0,0c0,0.01,0,0.03,0,0.04c0.01,1.35,0.6,2.63,1.63,3.51
		l5.22,4.47c0.32,0.24,0.35,0.68,0.08,0.96c-0.26,0.27-0.7,0.28-1,0.06l-1.38-1.12c-0.79-0.64-1.78-0.98-2.79-0.97l-0.56,0.01
		c-0.66,0.01-1.19,0.55-1.19,1.21l0.01,1.34c0,0.03,0,0.06,0,0.1c0,3.19,2.59,5.78,5.78,5.78l4.86,0c3.19,0,5.78-2.59,5.78-5.78
		v-0.05c0-0.01,0-0.03,0-0.04c0-1.57-0.72-3.04-1.96-4.01l-4.87-3.81c-0.32-0.24-0.35-0.68-0.08-0.96
		C27.42,6.25,27.87,6.23,28.17,6.45z"/>
	<polygon class="st0" points="58.99,20.98 52.32,20.98 58.11,0.19 64.78,0.19 	"/>
	<g>
		<g>
			<path class="st0" d="M112.03,0.19l-15.72,0v3.75l0,4.13l2.93,0V6.7c0-0.44,0.35-0.79,0.79-0.79l0,0c0.44,0,0.79,0.35,0.79,0.79
				v1.19c0.01,0.03,0.01,0.05,0.01,0.08l0,13.01l6.67,0l0-13.21c0-0.02,0-0.04,0-0.06V6.72c0-0.41,0.3-0.76,0.7-0.81
				c0.48-0.05,0.88,0.32,0.88,0.79v1.37l2.94,0L112.03,0.19z"/>
		</g>
	</g>
</g>
</svg>
