<?xml version="1.0" encoding="utf-8"?>
<!-- Generator: Adobe Illustrator 25.4.1, SVG Export Plug-In . SVG Version: 6.00 Build 0)  -->
<svg version="1.1" id="Layer_1" xmlns="http://www.w3.org/2000/svg" xmlns:xlink="http://www.w3.org/1999/xlink" x="0px" y="0px"
	 viewBox="0 0 180.03 13.62" style="enable-background:new 0 0 180.03 13.62;" xml:space="preserve">
<style type="text/css">
	.st0{fill:#B73A18;}
</style>
<g>
	<g>
		<g>
			<path class="st0" d="M163.79,3.01v3.31c0,0.27-0.22,0.49-0.49,0.49h0c-0.27,0-0.49-0.22-0.49-0.49V3.01
				c0-1.58-1.28-2.87-2.87-2.87l-1.72,0l1.43,13.35l7.18,0l1.56-13.35l-1.72,0C165.07,0.14,163.79,1.42,163.79,3.01z"/>
		</g>
	</g>
	<g>
		<g>
			<path class="st0" d="M134.11,10.63V7.47c0-0.27,0.22-0.49,0.49-0.49l0,0c0.27,0,0.49,0.22,0.49,0.49v3.16
				c0,1.58,1.28,2.87,2.87,2.87l1.72,0l-1.43-13.35l-7.18,0l-1.56,13.35l1.72,0C132.83,13.49,134.11,12.21,134.11,10.63z"/>
		</g>
	</g>
	<path class="st0" d="M6.74,4.16l3.42,0l0-4.04l-6.2,0l-2.33,0l-0.15,0L0,0.12l0,1.85l0,0c0.82,0,1.49,0.67,1.49,1.49l0,0.44l0,1.02
		l0,4.75c0,2.1,1.71,3.81,3.81,3.81l4.87,0l0-4.08l-3.42,0c-0.27,0-0.51-0.21-0.52-0.48C6.21,8.61,6.44,8.37,6.73,8.37l3.44,0
		l0-3.19l-3.44,0c-0.29,0-0.52-0.24-0.51-0.53C6.23,4.37,6.47,4.16,6.74,4.16z"/>
	<path class="st0" d="M31.76,13.48"/>
	<path class="st0" d="M34.39,4.28c0-2.29-1.86-4.15-4.15-4.15l-1.06,0l-3.47,0l-0.79,0l-1.87,0l0,1.85l0.23,0
		c0.9,0,1.63,0.73,1.63,1.63l0,9.87l1.4,0c1.58,0,2.86-1.28,2.87-2.86l0.01-2.18l1.04-0.01C32.53,8.43,34.39,6.57,34.39,4.28z"/>
	<rect x="122.95" y="0.14" class="st0" width="4.29" height="13.35"/>
	<path class="st0" d="M156.89,13.49l-4.2,0c-0.05,0-0.08-0.04-0.08-0.08l0-13.27l4.29,0V13.49z"/>
	<rect x="56.23" y="0.12" class="st0" width="4.29" height="13.35"/>
	<path class="st0" d="M55.15,11.62c-0.69,0-1.3-0.49-1.3-1.2c0,0,0-0.03,0-0.03c0-1.21-0.63-2.3-1.46-3.06
		c0.84-0.78,1.36-1.89,1.33-3.13c-0.04-2.24-1.96-4.07-4.2-4.07l-7.09,0v1.85l0.23,0c0.9,0,1.63,0.73,1.63,1.63l0,9.87l1.4,0
		c1.58,0,2.87-1.28,2.87-2.87l0-3.14c0-0.26,0.19-0.48,0.45-0.51c0.3-0.03,0.56,0.2,0.56,0.5l0,3.15c0,1.58,1.28,2.87,2.87,2.87
		l0.74,0l2.06,0v-1.85H55.15z"/>
	<path class="st0" d="M120.8,11.64c-0.69,0-1.3-0.49-1.3-1.2c0,0,0-0.03,0-0.03c0-1.21-0.63-2.3-1.46-3.06
		c0.84-0.78,1.36-1.89,1.33-3.13c-0.04-2.24-1.96-4.07-4.2-4.07l-7.09,0v1.85l0.23,0c0.9,0,1.63,0.73,1.63,1.63l0,9.87l1.4,0
		c1.58,0,2.87-1.28,2.87-2.87V7.49c0-0.26,0.19-0.48,0.45-0.51c0.3-0.03,0.56,0.2,0.56,0.5l0,3.15c0,1.58,1.28,2.87,2.87,2.87
		l2.79,0v-1.85H120.8z"/>
	<g>
		<g>
			<path class="st0" d="M102.81,8.9c0,0.28-0.22,0.5-0.5,0.5l0,0c-0.28,0-0.5-0.22-0.5-0.5V4.73c0-0.28,0.22-0.5,0.5-0.5l0,0
				c0.28,0,0.5,0.22,0.5,0.5l0,0c0,0.88,0.71,1.59,1.59,1.59l2.53,0v-2.3c0-2.21-1.79-4-4.01-4l-2.55,0c-2.21,0-4.01,1.79-4.01,4
				l0,5.6c0,2.21,1.79,4,4.01,4l2.55,0c2.21,0,4.01-1.79,4.01-4v-2.3l-2.53,0C103.52,7.31,102.81,8.02,102.81,8.9L102.81,8.9z"/>
		</g>
	</g>
	<path class="st0" d="M176.03,0.02l-2.55,0c-2.21,0-4.01,1.79-4.01,4l0,5.6c0,2.21,1.79,4,4.01,4l2.55,0c2.21,0,4.01-1.79,4.01-4
		V7.79V7.32v-3.3C180.03,1.81,178.24,0.02,176.03,0.02z M175.25,8.9c0,0.28-0.23,0.5-0.5,0.5c-0.28,0-0.5-0.22-0.5-0.5V4.73
		c0-0.28,0.22-0.5,0.5-0.5c0.28,0,0.5,0.22,0.5,0.5L175.25,8.9z"/>
	<path class="st0" d="M79.65,0l-2.55,0C74.89,0,73.1,1.8,73.1,4.01l0,5.61c0,2.21,1.79,4.01,4.01,4.01l2.55,0
		c2.21,0,4.01-1.79,4.01-4.01V7.79V7.32l0-3.31C83.66,1.8,81.87,0,79.65,0z M78.88,8.9c0,0.28-0.23,0.5-0.5,0.5
		c-0.28,0-0.5-0.22-0.5-0.5V4.72c0-0.28,0.22-0.5,0.5-0.5c0.28,0,0.5,0.22,0.5,0.5L78.88,8.9z"/>
	<path class="st0" d="M16.97,2.91"/>
	<path class="st0" d="M53.78,13.26"/>
	<g>
		<g>
			<path class="st0" d="M150.8,0.14l-10.1,0l0,2.41V5.2l1.88,0V4.32c0-0.28,0.23-0.51,0.51-0.51l0,0c0.28,0,0.51,0.23,0.51,0.51
				v0.76c0,0.02,0.01,0.03,0.01,0.05l0,8.36l4.29,0l0-8.49c0-0.01,0-0.02,0-0.04V4.33c0-0.26,0.19-0.49,0.45-0.52
				c0.31-0.03,0.57,0.21,0.57,0.5V5.2l1.89,0V0.14z"/>
		</g>
	</g>
	<path class="st0" d="M18.09,4.15l1.02,0.8c0.49,0.39,1.1,0.6,1.73,0.6l0.27,0c0.43,0,0.77-0.35,0.77-0.77v-1V3.71
		c0-2.05-1.66-3.71-3.71-3.71l-3.13,0c-2.05,0-3.71,1.66-3.71,3.72l0,0c0,0.01,0,0.02,0,0.03c0,0.87,0.39,1.69,1.04,2.25l3.35,2.87
		c0.2,0.15,0.23,0.44,0.05,0.62c-0.17,0.17-0.45,0.18-0.64,0.04L14.25,8.8c-0.51-0.41-1.14-0.63-1.79-0.62l-0.36,0
		c-0.43,0.01-0.77,0.35-0.76,0.78l0.01,0.86c0,0.02,0,0.04,0,0.06c0,2.05,1.66,3.71,3.71,3.71l3.12,0c2.05,0,3.71-1.66,3.71-3.71
		V9.85c0-0.01,0-0.02,0-0.03c0-1.01-0.47-1.96-1.26-2.58L17.5,4.8c-0.2-0.15-0.23-0.44-0.05-0.62C17.62,4.01,17.9,4,18.09,4.15z"/>
	<polygon class="st0" points="37.9,13.48 33.61,13.48 37.33,0.12 41.61,0.12 	"/>
	<g>
		<g>
			<path class="st0" d="M71.97,0.12l-10.1,0v2.41l0,2.65l1.88,0V4.3c0-0.28,0.23-0.51,0.51-0.51l0,0c0.28,0,0.51,0.23,0.51,0.51
				v0.76c0,0.02,0.01,0.03,0.01,0.05l0,8.36l4.29,0l0-8.49c0-0.01,0-0.02,0-0.04V4.32c0-0.26,0.19-0.49,0.45-0.52
				c0.31-0.03,0.57,0.21,0.57,0.5v0.88l1.89,0V0.12z"/>
		</g>
	</g>
</g>
</svg>
